<?xml version="1.0" encoding="UTF-8"?>
<svg id="Ebene_1" data-name="Ebene 1" xmlns="http://www.w3.org/2000/svg" version="1.1" viewBox="0 0 495.5 210">
  <defs>
    <style>
      .cls-1 {
        stroke-width: 1.2px;
      }

      .cls-1, .cls-2 {
        fill: #f7f5f2;
        stroke: #f7f5f2;
        stroke-miterlimit: 10;
      }

      .cls-2 {
        stroke-width: .5px;
      }
    </style>
  </defs>
  <g>
    <path class="cls-1" d="M142.1,196.5c0,.7,0,1.4.2,2.1,1.1,5.7,5.7,8.5,14,8.5h1v2h-1c-1.9,0-3.8-.2-5.5-.5-7.1-1.4-10.6-5.4-10.7-12.1v-33.4h-8.8v-2h8.8v-11.5h2v11.5h15.2v2h-15.2v33.4Z"/>
    <path class="cls-1" d="M168.3,152v-2h2.1v2h-2.1ZM168.3,161.1h2v48h-2v-48Z"/>
    <path class="cls-1" d="M216.6,173.5c0-2.1-.9-4-2.6-5.8-2.9-3.1-7-4.6-12.2-4.6s-6,.7-8.7,2c-4.1,2.1-6.1,4.9-6.1,8.4,0,1.7.8,3.2,2.3,4.6,1.9,1.7,6.4,3.6,13.4,5.9,3.8,1.3,6.6,2.2,8.3,2.9,6.3,2.7,9.4,5.9,9.4,9.8s-1,4.8-3.1,6.9c-3.6,3.7-8.8,5.5-15.5,5.5s-8.5-1-12-2.9c-4.4-2.5-6.6-5.6-6.6-9.5h2c0,2.1,1,4,2.8,5.8,3.3,3.1,7.9,4.6,13.8,4.6s7.1-.7,10.1-2.2c4.3-2.1,6.5-4.8,6.5-8.2,0-1.7-.9-3.2-2.4-4.6-1.9-1.7-6.3-3.6-13.2-5.8-3.9-1.3-6.7-2.3-8.4-3-6.3-2.6-9.4-5.9-9.4-9.8s1-4.8,2.9-7c3.3-3.6,8-5.4,13.9-5.4s7.5.9,10.6,2.8c4.1,2.5,6.2,5.7,6.2,9.6h-2Z"/>
    <path class="cls-1" d="M268.2,199.7c-4.3,6.2-10.3,9.3-18,9.4-5.4,0-10.2-1.9-14.3-5.8-5-4.8-7.5-10.9-7.5-18.2s1.9-11.5,5.6-16.1c4.3-5.3,9.7-7.9,16.2-7.9,7.9,0,13.9,3,18,8.8l-1.6,1.2c-3.6-5.3-9.1-7.9-16.4-8-4.8,0-9.1,1.7-12.8,5.2-4.7,4.3-7,9.9-7,16.8s1.6,10.3,4.8,14.5c3.9,5,8.9,7.5,15,7.5,6.8,0,12.3-2.9,16.4-8.6l1.6,1.2Z"/>
    <path class="cls-1" d="M284.9,168.2c3.8-4.7,8.6-7.1,14.5-7.1s8.7,1.6,12.2,4.7c4.5,4,6.8,9.1,6.8,15.4v28c0,0-1.8,0-1.8,0v-1c-.1,0-.2-27-.2-27,0-4.2-1.2-8-3.7-11.3-3.4-4.5-7.8-6.8-13.3-6.8s-7.6,1.3-10.7,4c-4.2,3.7-6.3,8.4-6.3,14.1v27.9h-2v-62.6h2v25.7c.7-1.4,1.5-2.7,2.5-4Z"/>
    <path class="cls-1" d="M334.4,140.1h2v69h-2v-69Z"/>
    <path class="cls-1" d="M390.9,199.4c-4.7,6.5-11.1,9.7-19.2,9.7s-10.3-1.9-14.4-5.8c-5.1-4.8-7.6-10.9-7.6-18.2s1.9-11.6,5.7-16.1c4.3-5.3,9.8-7.9,16.3-7.9s10.2,1.9,14.4,5.8c5.1,4.8,7.6,10.9,7.6,18.2v1h-42c.3,5.1,1.9,9.5,4.8,13.4,4,5.1,9.1,7.6,15.2,7.6s13.1-3,17.6-8.9l1.6,1.2ZM391.7,184.1c0-5.1-1.6-9.6-4.9-13.7-4.1-4.9-9.1-7.3-15.1-7.3s-8.7,1.6-12.4,4.7c-4.8,4.1-7.3,9.6-7.6,16.3h40Z"/>
    <path class="cls-1" d="M409.9,170.2c4.3-6.1,10.8-9.1,19.6-9.1h1v2h-1c-4.5,0-8.5,1-12,2.9-6.5,3.7-9.7,9.9-9.8,18.6v24.5h-2v-48h2v13.1c.6-1.4,1.3-2.7,2.2-4Z"/>
    <path class="cls-1" d="M476.7,199.4c-4.7,6.5-11.1,9.7-19.2,9.7s-10.3-1.9-14.4-5.8c-5.1-4.8-7.6-10.9-7.6-18.2s1.9-11.6,5.7-16.1c4.3-5.3,9.8-7.9,16.3-7.9s10.2,1.9,14.4,5.8c5.1,4.8,7.6,10.9,7.6,18.2v1h-42c.3,5.1,1.9,9.5,4.8,13.4,4,5.1,9.1,7.6,15.2,7.6s13.1-3,17.6-8.9l1.6,1.2ZM477.5,184.1c0-5.1-1.6-9.6-4.9-13.7-4.1-4.9-9.1-7.3-15.1-7.3s-8.7,1.6-12.4,4.7c-4.8,4.1-7.3,9.6-7.6,16.3h40Z"/>
    <path class="cls-1" d="M492.5,152v-2h2.1v2h-2.1ZM492.5,161.1h2v48h-2v-48Z"/>
  </g>
  <g>
    <path class="cls-2" d="M107.5,14.7c-3.2,4.3-6.4,9.8-9.6,16.6-3.2,6.8-6.4,14.5-9.4,23,2.8.5,5.5.9,8.2,1.2,2.6.3,5.2.4,7.8.4h1.5c.5,0,1,0,1.5-.1,1.5-4.7,3.2-9.2,5-13.8,1.8-4.5,3.7-8.7,5.8-12.6,2-3.9,4.2-7.6,6.5-10.9,2.3-3.3,4.7-6.2,7.2-8.6.9-.9,1.9-1.6,3-2.2,1.1-.6,2.3-1,3.5-1.3,1.2-.3,2.4-.4,3.6-.4,1.2,0,2.3.2,3.4.6,1.7.6,3,1.6,3.8,2.9.8,1.3,1.2,2.9,1.2,4.6,0,1.8-.2,3.6-.7,5.6-.5,2-1.1,3.9-1.8,5.8-.7,1.9-1.5,3.7-2.3,5.3-.8,1.6-1.5,3-2.1,4-3.3,5.9-7.3,10.8-12.1,14.9-4.8,4.1-10,7-15.6,8.7-1.6,3.8-3.1,7.4-4.4,10.9-1.3,3.5-2.5,6.6-3.4,9.3-.6,2.1-1.3,4.4-2,6.9-.7,2.5-1.5,5.1-2.2,7.9-.8,2.7-1.5,5.4-2.2,8-.7,2.6-1.4,5-2,7.2-.6,2.2-1.1,4.1-1.5,5.8-.4,1.6-.7,2.8-.8,3.4,1.1-1.9,2.4-4.2,4.1-6.9,1.6-2.7,3.4-5.4,5.4-8.1,2-2.7,4.1-5.2,6.4-7.4s4.5-3.9,6.6-4.9c.9-.5,1.8-.7,2.7-.6.9,0,1.6.2,2.2.6.6.4,1,.9,1.3,1.6.3.7.3,1.5,0,2.4-2.2,6.9-3.1,12.4-2.8,16.6.4,4.2,1.9,6.7,4.8,7.4,1.6.4,3.4.3,5.4-.4,2-.7,4.2-1.6,6.4-3,2.2-1.3,4.5-2.8,6.8-4.6,2.3-1.8,4.4-3.6,6.5-5.5,2.1-1.9,4-3.8,5.8-5.6,1.8-1.8,3.2-3.5,4.4-5,.7-.9,1.4-1.5,2.2-1.8.8-.3,1.5-.3,2,0,.5.3.7.8.7,1.5,0,.8-.6,1.7-1.6,2.8-2.2,2.6-4.8,5.5-7.9,8.6-3.1,3.2-6.4,6.1-10.1,8.7-3.6,2.6-7.3,4.8-11.1,6.4-3.8,1.6-7.6,2.2-11.2,1.9-2.7-.3-5-1.1-6.7-2.6-1.7-1.5-2.9-3.3-3.7-5.4-.8-2.1-1.1-4.5-1-7.1.1-2.6.5-5,1.4-7.4.1-.4.2-.8.3-1.1.1-.4.1-.6.1-.8,0-.1-.2-.1-.5,0-.3.1-.8.5-1.5,1.1-1.7,1.5-3.3,3.4-5,5.9-1.6,2.5-3.2,5.1-4.6,7.8-1.5,2.8-2.8,5.5-4,8.2-1.2,2.7-2.1,5-2.8,6.9-.3.7-.5,1.5-.8,2.2-.2.8-.4,1.5-.6,2.4,0,.5-.2,1-.6,1.3-.4.4-.9.5-1.4.5-.5,0-1-.5-1.4-1.1-.4-.7-.7-1.9-.7-3.5,0-2.5.3-6.1.8-11,.5-4.9,1.4-10.4,2.5-16.7,1.1-6.3,2.5-13,4.2-20.2,1.7-7.2,3.7-14.4,5.9-21.6h-2.6c-2.7,0-5.5-.2-8.2-.5-2.7-.4-5.4-.9-8.2-1.6-2.4,7-4.7,14.4-6.8,22.1-2.1,7.7-4.1,15.5-5.8,23.4-1.7,7.8-3.2,15.6-4.4,23.4-1.2,7.7-2,15.1-2.5,22.2-.3,5.3.2,9.7,1.8,13.1s4,6.1,7.4,8c1.2.7,1.8,1.5,1.9,2.4,0,.9-.4,1.6-1.1,2.1-.8.5-1.9.7-3.2.6-1.4-.1-2.8-.9-4.4-2.3-2.1-2.1-3.8-5.2-4.9-9.3-1.1-4-1.7-8.8-1.9-14.2-.2-5.6,0-12,.7-19.2.7-7.2,1.7-14.8,3-22.8,1.3-8,3-16.2,4.9-24.7,1.9-8.4,4-16.6,6.4-24.6.1-.3.2-.7.3-1.1.1-.4.2-.8.4-1.1-4.3-1.2-8.6-2.5-12.9-3.8-4.3-1.3-8.6-2.5-13-3.6-4.3-1.1-8.6-1.8-12.8-2.3-4.2-.5-8.4-.5-12.6-.1-4.2.4-8.2,1.5-12.2,3.1-4,1.7-7.9,4.2-11.7,7.5-.6.1-1.1.1-1.5-.1-.4-.2-.7-.5-.9-.9-.2-.4-.2-.8-.1-1.3.1-.5.4-.9.9-1.3,3.3-2.7,6.8-4.7,10.7-6,3.9-1.4,7.9-2.2,12.2-2.6,4.3-.4,8.7-.4,13.2,0,4.6.4,9.2,1,13.9,1.8,4.7.8,9.4,1.8,14.1,2.9,4.7,1.1,9.4,2.1,13.9,3,1.6-4.9,3.3-9.8,5-14.6,1.8-4.8,3.6-9.4,5.4-13.7,1.8-4.3,3.7-8.2,5.6-11.7,1.9-3.5,3.8-6.4,5.6-8.8,1.4-1.9,2.9-2.9,4.4-3,1.5-.1,2.7.4,3.6,1.5.9,1.2,1.2,2.8,1.1,5-.1,2.2-1.1,4.6-2.9,7.4ZM140.8,32c1-2.1,1.7-4.1,2.1-6,.4-1.9.6-3.5.5-4.8-.1-1.3-.5-2.2-1.2-2.8-.6-.5-1.5-.5-2.7,0-1.2.6-2.6,1.8-4.2,3.6-1.7,1.8-3.6,4.5-5.8,7.9-1.7,2.6-3.5,6-5.6,10.3-2.1,4.3-4.1,8.8-6.2,13.6,5.3-1.9,10-4.8,13.9-8.6,3.9-3.8,7-8.2,9.2-13.2Z"/>
    <path class="cls-2" d="M165.5,90.5c.9-1.3,2.1-2.7,3.4-4.1,1.3-1.4,2.8-2.6,4.4-3.8,1.6-1.1,3.3-1.9,5.1-2.4,1.8-.5,3.7-.6,5.6-.2,1.8.4,3.2,1.1,4.1,2,.9.9,1.5,2,1.6,3.1.2,1.3-.2,2.6-1.1,3.8-.9,1.2-2.2,2.2-3.8,3-1.6.9-3.5,1.6-5.7,2.1-2.2.5-4.4.7-6.7.6-.7,1.5-1.3,3.3-1.8,5.2-.6,1.9-.9,3.8-.9,5.8s.4,3.6,1.2,5.2c.8,1.6,2.2,2.8,4.2,3.6,2.1.9,4.4,1.1,7.1.6s5.5-1.4,8.4-2.7c2.9-1.3,5.8-2.9,8.5-4.6s5.4-3.6,7.7-5.4c2.3-1.8,4.3-3.4,5.9-4.8,1.6-1.4,2.6-2.4,3-2.9.7-.9,1.5-1.5,2.3-1.9.8-.3,1.4-.3,1.8-.1.4.2.6.7.5,1.5,0,.8-.6,1.7-1.7,2.9-1.5,1.8-3.4,3.7-5.7,5.6-2.3,2-4.8,3.9-7.5,5.7-2.7,1.8-5.6,3.5-8.6,5.1-3,1.6-6.1,2.9-9.2,3.9-3.1,1-6.2,1.7-9.3,2-3.1.4-6,.2-8.8-.4-3.6-.9-6.2-2.4-7.7-4.5-1.5-2.2-2.3-4.6-2.4-7.3,0-2.7.5-5.5,1.6-8.5,1.2-3,2.6-5.7,4.4-8.1ZM181.4,83.9c-.2-.4-.5-.6-.8-.6-.4,0-.8.2-1.4.7-.6.5-1.3,1.3-2.1,2.4-.8,1.1-1.8,2.7-2.9,4.7,1,.1,2,0,3-.5,1-.5,1.8-1.1,2.5-1.9.7-.8,1.3-1.6,1.6-2.5.3-.9.4-1.6,0-2.2Z"/>
  </g>
</svg>